# xmcd
#
# Track frame offsets:
#	150
#	15985
#	24777
#	40102
#	52842
#	66320
#	82762
#	98925
#	113510
#	130320
#	144222
# Disc length: 2117 seconds
# Revision: 1
# Processed by: cddbd v1.5.1PL0 Copyright (c) Steve Scherf et al.
#
# Submitted via: libkcddb 0.21
#
DISCID=7608430b
DTITLE=Ray Cummins - Precious Memories
DYEAR=2005
DGENRE=Contemporary Christian
TTITLE0=Precious Memories
TTITLE1=There Is Power In The Blood
TTITLE2=He Looked Beyond My Faults And Saw My Needs
TTITLE3=He's The Savious Of My Soul
TTITLE4=Take My Hand Precious Lord
TTITLE5=Rose Ann
TTITLE6=Sweet Hour Of Prayer
TTITLE7=The Old Rugged Cross
TTITLE8=Holy, Holy, Holy
TTITLE9=Jesus Is The Sweetest Name I Know
TTITLE10=Daddy's Hands
EXTD=
EXTT0=
EXTT1=
EXTT2=
EXTT3=
EXTT4=
EXTT5=
EXTT6=
EXTT7=
EXTT8=
EXTT9=
EXTT10=
PLAYORDER=
